<svg width="32" height="32" viewBox="0 0 32 32" fill="none" xmlns="http://www.w3.org/2000/svg">
<g id="love / 24 / Outline">
<path id="Vector" d="M26.88 6.14664C25.4644 4.73065 23.5877 3.86974 21.591 3.72048C19.5943 3.57122 17.6104 4.14352 16 5.33331C14.3036 4.07149 12.192 3.49932 10.0906 3.73203C7.98915 3.96473 6.05394 4.98501 4.67465 6.58742C3.29536 8.18983 2.57445 10.2553 2.65709 12.368C2.73973 14.4807 3.61978 16.4835 5.12002 17.9733L15.0534 27.9066C15.1773 28.0316 15.3248 28.1308 15.4873 28.1985C15.6497 28.2662 15.824 28.301 16 28.301C16.176 28.301 16.3503 28.2662 16.5128 28.1985C16.6753 28.1308 16.8227 28.0316 16.9467 27.9066L26.88 17.9733C27.6569 17.1969 28.2732 16.2751 28.6936 15.2605C29.1141 14.2458 29.3305 13.1583 29.3305 12.06C29.3305 10.9617 29.1141 9.87412 28.6936 8.85949C28.2732 7.84485 27.6569 6.92301 26.88 6.14664ZM25 16.0933L16 25.08L7.00002 16.0933C6.20692 15.2969 5.66665 14.284 5.44699 13.1818C5.22733 12.0795 5.33806 10.9369 5.76529 9.8973C6.19252 8.85771 6.91722 7.96743 7.84848 7.33814C8.77975 6.70885 9.8761 6.36856 11 6.35998C12.5015 6.36365 13.9402 6.96309 15 8.02664C15.124 8.15161 15.2714 8.25081 15.4339 8.3185C15.5964 8.38619 15.7707 8.42104 15.9467 8.42104C16.1227 8.42104 16.297 8.38619 16.4595 8.3185C16.6219 8.25081 16.7694 8.15161 16.8934 8.02664C17.9845 7.08115 19.394 6.5855 20.8367 6.64001C22.2795 6.69451 23.6476 7.29511 24.6643 8.32023C25.6809 9.34535 26.2701 10.7184 26.3127 12.1616C26.3552 13.6047 25.8479 15.0101 24.8934 16.0933H25Z" fill="#3E3F40"/>
</g>
</svg>
